<svg width="144" height="45" viewBox="0 0 144 45" fill="none" xmlns="http://www.w3.org/2000/svg">
<path d="M32.22 5.68105H29.0348L29.5187 3.43225H38.4022L37.9336 5.68105H34.7837L32.8948 14.5178H30.33L32.22 5.68105Z" fill="#212121"/>
<path d="M39.6822 3.43225H42.2431L39.8855 14.5178H37.3246L39.6822 3.43225Z" fill="#212121"/>
<path d="M44.3669 3.43225H47.1484L48.5228 9.2251L52.379 3.43225H55.127L52.7694 14.5178H50.2218L51.6269 7.86685L48.457 12.7071H47.0987L45.9743 7.86685L44.5712 14.5178H42.0093L44.3669 3.43225Z" fill="#212121"/>
<path d="M57.2478 3.43225H64.5392L64.0553 5.68105H59.3401L58.8886 7.83535H62.9328L62.4804 9.91234H58.4343L57.9341 12.27H62.7896L62.3248 14.5178H54.8902L57.2478 3.43225Z" fill="#212121"/>
<path d="M64.5622 12.5372C65.0365 11.3309 65.8386 10.2813 66.8778 9.50669C67.4884 9.0511 68.1418 8.65599 68.8288 8.32693C69.686 7.90949 70.3974 7.55951 70.9631 7.27698C71.4296 7.05168 71.8791 6.79264 72.308 6.50193C72.5851 6.32237 72.8252 6.09135 73.0153 5.82137C73.1522 5.59926 73.2224 5.3425 73.2176 5.08163C73.2258 4.91752 73.1986 4.75355 73.1378 4.60088C73.0771 4.44821 72.9841 4.3104 72.8654 4.19681C72.6315 3.97823 72.2793 3.86942 71.8155 3.86942C71.2147 3.8746 70.6272 4.04642 70.1184 4.36576C69.515 4.73794 68.9528 5.17308 68.4413 5.66388L66.5991 2.80038C66.9682 2.4763 67.3704 2.19189 67.7989 1.95183C68.3076 1.66315 68.8392 1.4167 69.3882 1.21496C69.9869 0.991308 70.6026 0.816072 71.2294 0.690941C71.8842 0.562078 72.5502 0.498135 73.2176 0.500041C74.6875 0.500041 75.7944 0.807072 76.5383 1.42113C77.2822 2.03519 77.6541 2.86752 77.6541 3.9181C77.6664 4.49832 77.5632 5.07519 77.3506 5.6152C77.1531 6.09311 76.8787 6.53548 76.5383 6.92477C76.1939 7.31787 75.8032 7.66786 75.3748 7.96708C74.9383 8.27443 74.4858 8.56555 74.0175 8.84045C73.5167 9.11534 72.9672 9.44242 72.3691 9.82167C71.7951 10.182 71.266 10.6095 70.7932 11.095H76.4171L75.6879 14.5856H63.9561C64.0996 13.8868 64.3024 13.2015 64.5622 12.5372Z" fill="#212121"/>
<path d="M38.028 32.5597C38.6575 33.0965 39.3657 33.5334 40.1279 33.855C40.7972 34.1445 41.5169 34.2992 42.246 34.3103C42.8441 34.3103 43.3198 34.1461 43.6729 33.8178C44.0261 33.4894 44.2027 33.0408 44.2027 32.4719C44.1943 31.9526 44.0412 31.4459 43.7608 31.0087C43.4668 30.5232 42.8982 29.8782 42.0551 29.0739C41.0369 28.0838 40.337 27.2111 39.9552 26.4557C39.5684 25.6794 39.3721 24.8222 39.3825 23.9549C39.3825 21.9053 40.0322 20.2776 41.3316 19.0717C42.6309 17.8659 44.3936 17.263 46.6195 17.263C47.4875 17.2586 48.3529 17.3596 49.1966 17.5636C50.0556 17.7833 50.8878 18.0967 51.6783 18.4981L50.825 23.7354C50.239 23.3169 49.6044 22.9711 48.9351 22.7055C48.3761 22.4805 47.7804 22.3608 47.1779 22.3523C46.6777 22.3523 46.2829 22.4822 45.9933 22.7418C45.7038 23.0014 45.5593 23.3568 45.56 23.8079C45.56 24.4169 46.1139 25.2702 47.2218 26.3679L47.5453 26.6915C48.6627 27.7892 49.398 28.7306 49.7512 29.5158C50.1043 30.3011 50.2809 31.2079 50.2809 32.2362C50.2809 34.5321 49.5724 36.3415 48.1553 37.6644C46.7381 38.9873 44.7992 39.6494 42.3385 39.6507C41.3334 39.6561 40.3319 39.5296 39.3596 39.2746C38.4229 39.0252 37.6361 38.6797 36.9991 38.2381L38.028 32.5597Z" fill="#EBFF46"/>
<path d="M58.3274 23.2344L55.2969 39.1649H50.134L55.0764 17.6887H62.0929L62.1521 29.0148L65.7993 17.6897H72.7862L70.9478 39.1659H65.7706L67.7264 23.2649L62.637 39.1649H58.5775L58.3274 23.2344Z" fill="#EBFF46"/>
<path d="M70.9774 39.1649L79.0525 17.6887H86.1282L87.643 39.1649H81.5828L81.6115 36.0027H78.0674L77.1253 39.1649H70.9774ZM79.3321 31.6635H81.7298L81.8033 23.7059L79.3321 31.6635Z" fill="#EBFF46"/>
<path d="M89.2904 32.5597C89.9196 33.0968 90.6279 33.5337 91.3903 33.855C92.0598 34.1445 92.7799 34.2993 93.5093 34.3103C94.1068 34.3103 94.5821 34.1461 94.9353 33.8178C95.2884 33.4894 95.465 33.0408 95.465 32.4719C95.4565 31.9527 95.3038 31.4461 95.024 31.0087C94.7326 30.5232 94.1647 29.8782 93.3203 29.0739C92.3021 28.0838 91.6022 27.2111 91.2204 26.4557C90.8332 25.6796 90.6368 24.8222 90.6477 23.9549C90.6477 21.9053 91.2974 20.2776 92.5968 19.0717C93.8961 17.8659 95.6591 17.263 97.8856 17.263C98.7537 17.2585 99.6191 17.3595 100.463 17.5636C101.322 17.7835 102.154 18.0969 102.944 18.4981L102.091 23.7354C101.505 23.3169 100.871 22.9711 100.201 22.7055C99.6419 22.4805 99.0459 22.3607 98.4431 22.3523C97.9429 22.3523 97.5484 22.4822 97.2595 22.7418C96.9706 23.0014 96.8258 23.3568 96.8252 23.808C96.8252 24.4169 97.3791 25.2702 98.487 26.3679L98.8105 26.6915C99.9292 27.7892 100.665 28.7306 101.017 29.5159C101.37 30.3011 101.546 31.2079 101.547 32.2362C101.547 34.5321 100.839 36.3415 99.4214 37.6644C98.0043 38.9873 96.0651 39.6494 93.6037 39.6507C92.5986 39.656 91.5971 39.5296 90.6248 39.2746C89.6881 39.0252 88.9013 38.6797 88.2643 38.2381L89.2904 32.5597Z" fill="#EBFF46"/>
<path d="M114.715 12.2413L113.856 17.6896H113.84L112.634 25.4554H110.162L111.398 17.6896H105.411L101.999 39.1649H101.997L101.138 44.6131H107.124L107.983 39.1649H108L109.324 30.7662H111.766L110.442 39.1649H116.429L119.841 17.6896H119.843L120.702 12.2413H114.715Z" fill="#EBFF46"/>
<path d="M30.7387 23.4319C28.1615 23.3068 25.5538 23.241 22.9576 23.2238C20.3614 23.2066 17.7594 23.24 15.1641 23.3488C12.5688 23.4576 9.97451 23.6438 7.40213 23.9969C6.11725 24.1697 4.8427 24.4122 3.58414 24.7233C2.33375 25.0526 1.08049 25.4573 0 26.197C1.03181 25.3895 2.27552 24.897 3.51446 24.4856C4.76507 24.0917 6.0361 23.7657 7.32196 23.5092C9.89147 22.989 12.4906 22.6406 15.0944 22.3638C17.6983 22.087 20.3108 21.8865 22.9213 21.7424C25.5319 21.5983 28.1472 21.4933 30.7835 21.4561C31.0416 21.4594 31.2881 21.5633 31.4707 21.7457C31.6533 21.928 31.7576 22.1744 31.7613 22.4324C31.765 22.6904 31.6679 22.9397 31.4907 23.1273C31.3134 23.3148 31.07 23.4258 30.8122 23.4366H30.7396L30.7387 23.4319Z" fill="#EBFF46"/>
<path d="M30.6766 29.0854C28.6158 28.842 26.5149 28.6549 24.4265 28.5127C22.3381 28.3705 20.2382 28.2798 18.1421 28.2636C16.046 28.2473 13.9423 28.3046 11.8653 28.5327C10.8248 28.6417 9.79306 28.8226 8.7775 29.0739C7.77146 29.3402 6.76255 29.6924 5.93787 30.3596C6.70815 29.6294 7.70846 29.1856 8.70591 28.8324C9.71516 28.4979 10.7462 28.2332 11.7918 28.0402C13.8793 27.6441 15.9916 27.4236 18.1096 27.2709C20.2277 27.1182 22.3476 27.0485 24.4675 27.0256C26.5875 27.0027 28.7027 27.0256 30.8436 27.1096C31.1026 27.1248 31.3454 27.241 31.5196 27.4333C31.6939 27.6255 31.7858 27.8785 31.7755 28.1378C31.7653 28.3971 31.6537 28.642 31.4648 28.8199C31.2759 28.9978 31.0248 29.0945 30.7653 29.0892L30.6909 29.0835L30.6766 29.0854Z" fill="#EBFF46"/>
<path d="M30.624 34.4572C28.8821 34.1441 27.0924 33.8845 25.3189 33.6679C23.5455 33.4512 21.751 33.2861 19.9613 33.1906C18.1717 33.0952 16.3762 33.0751 14.5932 33.2259C13.7024 33.2961 12.8188 33.4388 11.9512 33.6526C11.0921 33.8817 10.2331 34.2052 9.56494 34.8237C10.173 34.1461 11.0244 33.728 11.8758 33.4159C12.7397 33.1174 13.6265 32.8898 14.5274 32.7353C16.3247 32.4165 18.1468 32.2752 19.968 32.2008C21.7892 32.1263 23.6104 32.134 25.4297 32.1874C27.2489 32.2409 29.0568 32.3373 30.898 32.4967C31.0277 32.5076 31.1539 32.5441 31.2695 32.6038C31.3851 32.6636 31.4878 32.7455 31.5717 32.845C31.6557 32.9444 31.7192 33.0594 31.7587 33.1834C31.7982 33.3074 31.8129 33.438 31.8019 33.5676C31.7909 33.6973 31.7545 33.8235 31.6948 33.9391C31.635 34.0547 31.5531 34.1574 31.4536 34.2414C31.3542 34.3253 31.2392 34.3888 31.1152 34.4283C30.9912 34.4678 30.8606 34.4825 30.7309 34.4715C30.7004 34.4715 30.6718 34.4649 30.6422 34.4601L30.624 34.4572Z" fill="#EBFF46"/>
<path d="M143.883 27.8072C143.883 33.2975 139.235 37.7474 133.503 37.7474C132.614 37.7492 131.728 37.6402 130.866 37.4229C130.625 37.3637 130.389 37.2959 130.154 37.2167C126.061 35.8871 123.12 32.1741 123.12 27.8072C123.12 23.4404 126.061 19.7274 130.154 18.3968C130.387 18.3176 130.625 18.2508 130.866 18.1916C131.728 17.9743 132.614 17.8652 133.503 17.8671C139.235 17.8719 143.883 22.316 143.883 27.8072Z" fill="#EBFF46"/>
<path d="M130.866 18.1917C130.625 18.2508 130.389 18.3176 130.154 18.3969C134.496 19.5098 137.703 23.3059 137.703 27.8073C137.703 32.3087 134.496 36.1047 130.154 37.2167C130.387 37.2959 130.625 37.3637 130.866 37.4229C135.066 36.077 138.1 32.2762 138.1 27.8073C138.1 23.3383 135.067 19.5375 130.866 18.1917Z" fill="#D1D1D1"/>
</svg>
