<?xml version="1.0" standalone="no"?>
<!DOCTYPE svg PUBLIC "-//W3C//DTD SVG 20010904//EN"
 "http://www.w3.org/TR/2001/REC-SVG-20010904/DTD/svg10.dtd">
<svg version="1.0" xmlns="http://www.w3.org/2000/svg"
 width="700.000000pt" height="700.000000pt" viewBox="0 0 700.000000 700.000000"
 preserveAspectRatio="xMidYMid meet">
<metadata>
Created by potrace 1.16, written by Peter Selinger 2001-2019
</metadata>
<g transform="translate(0.000000,700.000000) scale(0.100000,-0.100000)"
fill="#000000" stroke="none">
<path d="M3555 2734 c-38 -19 -45 -31 -45 -75 0 -48 33 -79 84 -79 49 0 70 12
86 50 16 39 -1 85 -41 105 -35 19 -47 19 -84 -1z"/>
<path d="M1668 2710 c-25 -26 -29 -36 -24 -63 3 -18 18 -43 33 -56 22 -19 34
-22 67 -18 49 7 76 36 76 84 0 79 -93 112 -152 53z"/>
<path d="M2085 2505 c-79 -15 -125 -30 -125 -43 0 -5 7 -29 16 -55 l16 -46 41
17 c59 23 159 23 186 -2 12 -11 21 -27 21 -38 0 -14 -8 -18 -35 -18 -125 0
-244 -62 -274 -143 -62 -163 131 -301 282 -201 21 14 40 24 40 22 21 -41 24
-43 93 -43 l69 1 -4 199 c-2 144 -7 210 -18 235 -41 101 -156 144 -308 115z
m165 -330 c0 -91 -86 -149 -140 -95 -27 27 -26 71 3 97 29 26 43 31 95 32 42
1 42 1 42 -34z"/>
<path d="M2796 2505 c-21 -7 -50 -25 -65 -39 -35 -33 -41 -33 -41 4 l0 30 -75
0 c-72 0 -75 -1 -71 -22 3 -13 5 -134 5 -270 l1 -248 80 0 80 0 0 168 c0 139
3 173 18 202 33 66 116 66 139 0 7 -21 12 -100 12 -202 l1 -168 83 0 82 0 0
178 c0 153 2 182 18 205 19 30 54 42 93 33 44 -11 54 -55 54 -246 l0 -170 86
0 86 0 -4 203 c-5 253 -19 295 -113 338 -70 32 -149 19 -212 -36 l-37 -32 -31
32 c-29 31 -87 55 -130 55 -11 -1 -37 -7 -59 -15z"/>
<path d="M4237 2510 c-134 -34 -207 -132 -207 -280 0 -123 47 -207 142 -254
129 -64 301 -6 356 121 45 105 37 223 -21 310 -53 80 -175 126 -270 103z m134
-93 c102 -67 110 -271 14 -356 -63 -55 -148 -49 -203 13 -42 48 -55 96 -50
181 5 83 31 135 82 166 44 27 114 25 157 -4z"/>
<path d="M4903 2511 c-40 -10 -74 -32 -108 -68 l-25 -28 0 42 0 41 -45 4 -45
3 0 -382 0 -383 50 0 50 0 0 146 0 146 34 -30 c94 -82 241 -61 323 46 40 53
55 106 55 197 -1 116 -39 195 -117 240 -47 28 -121 39 -172 26z m97 -89 c72
-36 109 -129 92 -230 -19 -113 -82 -170 -178 -159 -94 10 -134 68 -134 195 0
63 5 92 20 122 41 80 124 110 200 72z"/>
<path d="M5470 2511 c-119 -37 -184 -133 -184 -276 -1 -96 14 -144 63 -198 63
-71 163 -98 283 -77 82 15 99 26 91 63 -5 25 -9 28 -32 23 -14 -3 -56 -9 -93
-12 -122 -12 -204 42 -216 141 l-5 45 192 0 191 0 0 43 c0 174 -140 293 -290
248z m115 -75 c41 -18 75 -69 75 -113 l0 -33 -140 0 c-152 0 -151 0 -129 57
12 33 56 82 84 93 31 13 72 11 110 -4z"/>
<path d="M6065 2502 c-22 -11 -51 -32 -65 -47 l-25 -27 -5 39 c-5 37 -6 38
-47 41 l-43 3 0 -269 c0 -148 2 -271 4 -273 3 -2 25 -3 50 -1 l46 4 0 177 c0
198 7 227 69 268 62 41 135 26 174 -36 20 -33 22 -51 26 -223 l3 -188 45 0 44
0 -3 208 c-3 236 -11 264 -80 310 -53 35 -136 41 -193 14z"/>
<path d="M915 2493 c-16 -8 -42 -27 -57 -41 -27 -25 -28 -25 -28 -5 0 47 -8
53 -81 53 l-69 0 0 -275 0 -275 85 0 85 0 0 175 c0 218 10 245 88 245 63 -1
72 -27 79 -240 l6 -180 79 0 78 0 0 175 c0 197 7 225 61 244 24 8 37 7 59 -4
39 -20 50 -75 50 -259 l0 -156 81 0 80 0 -3 213 c-3 205 -4 213 -28 256 -34
61 -68 83 -133 89 -69 5 -118 -10 -162 -53 l-35 -33 -20 28 c-40 56 -149 78
-215 43z"/>
<path d="M3510 2235 l0 -275 85 0 85 0 0 275 0 275 -85 0 -85 0 0 -275z"/>
<path d="M1650 2225 l0 -276 83 3 82 3 3 273 2 272 -85 0 -85 0 0 -275z"/>
</g>
</svg>
